<?xml version="1.0"?>
<svg xmlns="http://www.w3.org/2000/svg" id="Capa_1" enable-background="new 0 0 488 488" height="512px" viewBox="0 0 488 488" width="512px"><g><g><path d="m248.396 75-33-43h-215.396v424h488v-381zm-218.396-13h170.604l29.013 37.805-23.61 23.195h-146.007v64h-30zm145.471 91-34.607 34h-50.864v-34zm282.529 273h-428v-209h123.136l114-112h190.864z" data-original="#000000" class="active-path" data-old_color="#000000" fill="#FFFFFF"/><path d="m258 235v151h151v-151h-30.667v-46c0-24.813-20.187-45-45-45s-45 20.187-45 45v46zm121 121h-91v-91h91zm-60.667-167c0-8.271 6.729-15 15-15s15 6.729 15 15v46h-30z" data-original="#000000" class="active-path" data-old_color="#000000" fill="#FFFFFF"/><path d="m82 356h112v30h-112z" data-original="#000000" class="active-path" data-old_color="#000000" fill="#FFFFFF"/><path d="m82 293h112v30h-112z" data-original="#000000" class="active-path" data-old_color="#000000" fill="#FFFFFF"/><path d="m318.333 295.25h30v30h-30z" data-original="#000000" class="active-path" data-old_color="#000000" fill="#FFFFFF"/></g></g> </svg>
