<svg id="Layer_1" enable-background="new 0 0 512 512" height="512" viewBox="0 0 512 512" width="512" xmlns="http://www.w3.org/2000/svg"><g><path d="m458.834 382.741v-351.971c0-16.967-13.803-30.77-30.77-30.77h-300.277c-40.49 0-74.5 34.012-74.5 74.5v35.649c0 9.697 15 9.697 15 0v-35.649c0-27.2 20.042-52.175 46.59-58.073-.31 125.032-.306 251.685.01 376.72-17.298 6.441-29.638 22.941-29.638 42.238 0 19.254 12.285 35.722 29.522 42.193l-.076 17.941c-28.806-6.519-46.409-35.059-46.409-63.405v-281.939c.034-10.503-15-8.509-15-.055 0 5.282-.269 80.715 0 159.837v127.486c0 41.215 33.485 74.557 74.557 74.557h225.431c9.697 0 9.697-15 0-15h-223.552c-.096-5.492-.01-11.093-.01-16.515 0 0 305.88.031 305.88.031 10.653 0 10.653 16.483 0 16.483h-36.532c-9.697 0-9.697 15 0 15h36.532c29.936 0 29.763-45.297-.032-46.483v-60.275c12.259-.259 23.274-9.683 23.274-22.5zm-15-116.975c-32.704-47.845-72.471-106.48-79.267-117.795 1.362-10.366 1.303-19.986.371-28.73 9.468-2.447 17.576-.797 24.688 4.999 8.353 6.808 9.242 16.473 10.369 28.708 1.888 20.501 4.22 45.835 43.839 64.296zm0-66.313-.628.633c-13.766-7.734-20.455-16.275-23.947-25.326l24.575-24.702zm0-70.664-28.346 28.492c-1.452-13.44-1.666-27.676-10.572-38.821l38.918-39.078zm-313.952-113.789h298.182c8.695 0 15.77 7.074 15.77 15.77v27.356l-50.376 50.582c-9.252-5.42-19.791-6.872-31.039-4.268-5.54-23.468-16.393-37.758-17.094-38.662-4.585-4.2-8.772-3.835-12.561 1.096l-21.88 41.472-44.357-69.291c-4.243-6.635-14.859-2.681-13.74 5.11l10.827 75.316-67.886 33.813c-22.78 11.39-45.111 24.023-45.111 53.306 0 33.391 32.674 56.784 63.594 47.865l46.443-12.413-130.812 131.348c-.269-119.091-.257-239.479.04-358.4zm164.263 95.018c-5.521.308-11.006 1.206-16.349 2.698l-5.235-36.414zm-75.18 127.651c-2.948.787-5.922 1.506-8.85 2.367-22.054 6.391-44.498-10.735-44.498-33.435 0-20.115 15.898-30.555 32.307-37.642 10.978 10.262 28.027 32.66 21.041 68.71zm35.42 152.572c-4.526.004-9.364.008-14.289.012h-35.221l88.278-88.735 8.787 40.831zm51.32-30.395 6.544 30.407h-36.737zm-121.99 30.407h-49.487l144.316-144.906c2.016 2.02 3.448 4.553 4.114 7.411l6.73 31.274zm236.845 37.632h-173.833c-4.143 0-7.5 3.358-7.5 7.5s3.357 7.5 7.5 7.5h173.833v22.632h-289.578c-16.946 0-30.733-13.517-30.733-30.132s13.787-30.132 30.733-30.132h289.578zm7.694-37.642-100.661.01-30.282-140.71c-3.338-16.692-21.525-27.061-37.648-22.75l-24.827 6.636c4.467-35.089-10.548-58.626-22.744-71.525l69.826-34.779c9.799-2.72 20.202-2.973 30.132-.729 3.303.749 6.704-.816 8.287-3.816l19.472-36.908c6.104 12.302 13.828 34.456 9.583 62.503 0 0 89.136 136.4 94.443 144.149v82.16c-.001 8.629-6.972 15.654-15.581 15.759z"/><path d="m157.73 91.03 14.903 8.151 8.575 24.353c2.302 6.54 11.846 6.54 14.148 0l8.576-24.353 14.903-8.151c5.202-4.387 5.202-8.773 0-13.16l-14.903-8.151-8.576-24.352c-2.303-6.539-11.846-6.539-14.148 0l-8.575 24.353-14.903 8.15c-5.202 4.387-5.202 8.774 0 13.16zm24.622-9.53c1.623-.888 2.861-2.344 3.476-4.089l2.455-6.974 2.456 6.974c.614 1.745 1.853 3.201 3.476 4.089l5.393 2.95-5.393 2.95c-1.623.888-2.861 2.344-3.476 4.089l-2.456 6.974-2.455-6.973c-.614-1.745-1.853-3.202-3.476-4.089l-5.393-2.95z"/><path d="m293.834 149.265c-11.541 0-20.931 9.39-20.931 20.931 0 9.697 15 9.697 15 0 0-3.27 2.66-5.931 5.931-5.931s5.931 2.661 5.931 5.931c0 9.697 15 9.697 15 0-.001-11.541-9.39-20.931-20.931-20.931z"/><path d="m183.665 191.919c-4.143 0-7.5 3.358-7.5 7.5v12.949c0 9.697 15 9.697 15 0v-12.949c0-4.142-3.358-7.5-7.5-7.5z"/></g></svg>