<svg height="512" viewBox="0 0 512.016 512.016" width="512" xmlns="http://www.w3.org/2000/svg">
    <path d="M453.47 1.565a27.282 27.282 0 00-9.035-1.549c-15.123 0-27.427 12.361-27.427 27.555v52.451H206.292c-7.346 0-14.252 2.861-19.445 8.055l-20 20c-4.873 4.875-12.805 4.875-17.678 0l-20-19.999c-5.193-5.194-12.1-8.056-19.445-8.056H95.008V27.571a27.615 27.615 0 00-11.63-22.488c-7.33-5.197-16.383-6.481-24.831-3.517C23.534 13.843.008 47.034.008 84.157v340.359c0 48.248 39.252 87.5 87.5 87.5h204.591c7.346 0 14.251-2.86 19.445-8.054l20-20c4.873-4.875 12.805-4.875 17.678 0l20 20c5.194 5.193 12.1 8.054 19.445 8.054h35.841c18.216 0 35.678-5.545 50.499-16.034a7.5 7.5 0 00-8.666-12.244c-12.273 8.687-26.738 13.278-41.833 13.278h-35.841c-3.339 0-6.478-1.3-8.838-3.661l-20-20c-10.723-10.721-28.17-10.721-38.893 0l-20 20a12.414 12.414 0 01-8.838 3.661H87.508c-39.977 0-72.5-32.523-72.5-72.5 0-34.293 24.343-64.164 57.88-71.027 12.817-2.622 22.12-13.9 22.12-26.816v-50.989c0-4.143-3.357-7.5-7.5-7.5s-7.5 3.357-7.5 7.5v50.989c0 5.917-4.164 10.901-10.127 12.121-22.984 4.703-42.39 18.354-54.873 36.85V84.157c0-30.762 19.491-58.264 48.502-68.437 3.801-1.331 7.88-.749 11.192 1.599 3.372 2.391 5.306 6.128 5.306 10.252v218.112c0 4.143 3.357 7.5 7.5 7.5s7.5-3.357 7.5-7.5V95.022h14.716c3.339 0 6.478 1.3 8.838 3.662l20 20c5.361 5.361 12.404 8.041 19.446 8.041s14.085-2.68 19.446-8.041l20-20.001a12.414 12.414 0 018.838-3.661h210.716v97.218c0 7.346 2.86 14.251 8.054 19.445l20 20a12.417 12.417 0 013.662 8.839c0 3.338-1.301 6.478-3.662 8.838l-20 20.001c-5.193 5.194-8.054 12.101-8.054 19.445v37.864c0 12.916 9.303 24.194 22.119 26.816 33.538 6.863 57.881 36.734 57.881 71.027 0 14.622-4.33 28.711-12.522 40.744a7.503 7.503 0 006.193 11.722 7.494 7.494 0 006.207-3.28c9.893-14.532 15.122-31.541 15.122-49.186V84.157c0-37.122-23.524-70.314-58.538-82.592zm-11.336 337.229c-5.962-1.22-10.126-6.204-10.126-12.121v-37.864c0-3.339 1.3-6.479 3.661-8.839l20-20c10.722-10.723 10.722-28.169 0-38.892l-20-20a12.583 12.583 0 01-3.661-8.838V27.571c0-6.923 5.574-12.555 12.427-12.555 1.368 0 2.738.237 4.072.704 29.01 10.173 48.501 37.676 48.501 68.437v291.486c-12.483-18.496-31.889-32.146-54.874-36.849z"/>
    <path d="M207.508 183.062c0-20.678-16.822-37.5-37.5-37.5s-37.5 16.822-37.5 37.5 16.822 37.5 37.5 37.5 37.5-16.822 37.5-37.5zm-37.5 22.5c-12.406 0-22.5-10.094-22.5-22.5s10.094-22.5 22.5-22.5 22.5 10.094 22.5 22.5-10.094 22.5-22.5 22.5zM377.312 319.584a7.502 7.502 0 00-10.607 0l-14.696 14.696-14.696-14.696a7.5 7.5 0 00-10.607 10.607l14.696 14.696-14.696 14.696a7.5 7.5 0 1010.608 10.607l14.696-14.696 14.696 14.696c1.465 1.464 3.385 2.196 5.304 2.196s3.839-.732 5.304-2.196a7.5 7.5 0 000-10.607l-14.696-14.696 14.696-14.696a7.502 7.502 0 00-.002-10.607zM240.008 190.562h7.5c4.143 0 7.5-3.357 7.5-7.5s-3.357-7.5-7.5-7.5h-7.5c-4.143 0-7.5 3.357-7.5 7.5s3.358 7.5 7.5 7.5zM355.587 231.255a7.502 7.502 0 007.863-7.119c.038-.771.058-1.547.058-2.327a46.17 46.17 0 00-2.479-14.971 7.5 7.5 0 10-14.193 4.853 31.189 31.189 0 011.633 11.7 7.5 7.5 0 007.118 7.864zM299.207 183.062c0-4.143-3.357-7.5-7.5-7.5h-14.733c-4.143 0-7.5 3.357-7.5 7.5s3.357 7.5 7.5 7.5h14.733c4.143 0 7.5-3.357 7.5-7.5zM310.027 260.554c0-4.143-3.357-7.5-7.5-7.5h-14.732c-4.143 0-7.5 3.357-7.5 7.5s3.357 7.5 7.5 7.5h14.732a7.5 7.5 0 007.5-7.5zM335.187 194.953a7.5 7.5 0 003.48-14.148 45.872 45.872 0 00-16.756-5.011 7.5 7.5 0 00-1.492 14.926 30.892 30.892 0 0111.299 3.378 7.483 7.483 0 003.469.855zM331.641 265.302a7.48 7.48 0 002.782-.538 46.077 46.077 0 0014.704-9.438 7.501 7.501 0 00-10.336-10.872 31.134 31.134 0 01-9.937 6.382 7.5 7.5 0 00-4.18 9.748 7.505 7.505 0 006.967 4.718zM209.038 444.763a7.52 7.52 0 002.021-.278 53.68 53.68 0 0015.482-7.132 7.5 7.5 0 002.054-10.405c-2.308-3.441-6.968-4.361-10.405-2.054a38.725 38.725 0 01-11.164 5.144 7.5 7.5 0 002.012 14.725zM199.396 268.054h14.732c4.143 0 7.5-3.357 7.5-7.5s-3.357-7.5-7.5-7.5h-14.732c-4.143 0-7.5 3.357-7.5 7.5s3.357 7.5 7.5 7.5zM162.664 434.552a53.851 53.851 0 0014.788 8.46 7.505 7.505 0 002.646.484 7.5 7.5 0 002.649-14.519 38.908 38.908 0 01-10.677-6.108 7.5 7.5 0 00-9.406 11.683zM237.68 415.375a7.48 7.48 0 002.555.451 7.504 7.504 0 007.052-4.946 53.785 53.785 0 003.195-16.732 7.499 7.499 0 00-7.5-7.73 7.5 7.5 0 00-7.492 7.271 38.86 38.86 0 01-2.305 12.08 7.499 7.499 0 004.495 9.606zM150.008 323.673c4.143 0 7.5-3.357 7.5-7.5V301.44c0-4.143-3.357-7.5-7.5-7.5s-7.5 3.357-7.5 7.5v14.733a7.5 7.5 0 007.5 7.5zM142.508 360.372c0 4.143 3.357 7.5 7.5 7.5s7.5-3.357 7.5-7.5v-14.733c0-4.143-3.357-7.5-7.5-7.5s-7.5 3.357-7.5 7.5zM164.953 279.054a31.23 31.23 0 019.218-7.397 7.5 7.5 0 00-7.012-13.26 46.203 46.203 0 00-13.626 10.931 7.5 7.5 0 005.706 12.363 7.481 7.481 0 005.714-2.637zM142.508 392.47c0 4.703.606 9.375 1.804 13.886a7.504 7.504 0 007.244 5.578 7.5 7.5 0 007.254-9.426 39.19 39.19 0 01-1.302-10.038v-2.633c0-4.143-3.357-7.5-7.5-7.5s-7.5 3.357-7.5 7.5zM258.328 253.054h-14.732c-4.143 0-7.5 3.357-7.5 7.5s3.357 7.5 7.5 7.5h14.732c4.143 0 7.5-3.357 7.5-7.5s-3.358-7.5-7.5-7.5zM254.246 368.798a31.276 31.276 0 017.483-9.151 7.498 7.498 0 00.943-10.564 7.497 7.497 0 00-10.564-.943 46.227 46.227 0 00-11.056 13.522 7.5 7.5 0 1013.194 7.136zM284.508 352.387h7.5c4.143 0 7.5-3.357 7.5-7.5s-3.357-7.5-7.5-7.5h-7.5c-4.143 0-7.5 3.357-7.5 7.5s3.358 7.5 7.5 7.5z"/>
</svg>
