<svg id="Capa_1" enable-background="new 0 0 524.235 524.235" height="512" viewBox="0 0 524.235 524.235" width="512" xmlns="http://www.w3.org/2000/svg"><path d="m458.387 340.814c-1.536-7.647-8.255-13.167-16.062-13.167h-147.442v32.765h134.018l26.205 131.059h-385.977l26.205-131.059h101.254v-32.765h-114.676c-7.807 0-14.527 5.519-16.062 13.167l-32.765 163.823c-.96 4.816.288 9.807 3.392 13.599 3.12 3.792 7.759 5.999 12.671 5.999h425.941c4.911 0 9.551-2.208 12.671-5.999 3.104-3.792 4.352-8.783 3.392-13.599z"/><path d="m262.118 271.535 188.46-109.935c5.199-3.04 8.319-8.671 8.111-14.687-.192-6.015-3.664-11.439-9.039-14.127l-187.532-93.766v-22.638c0-9.055-7.328-16.382-16.383-16.382s-16.382 7.327-16.382 16.382v409.559h32.765zm0-195.88 145.793 72.891-145.793 85.043z"/></svg>