<svg id="Capa_1" enable-background="new 0 0 534.965 534.965" height="512" viewBox="0 0 534.965 534.965" width="512" xmlns="http://www.w3.org/2000/svg"><g><g id="info_1_"><path d="m267.482 534.965c-147.726 0-267.482-119.756-267.482-267.483s119.756-267.482 267.482-267.482 267.482 119.756 267.482 267.482-119.755 267.483-267.482 267.483zm0-515.859c-137.175 0-248.376 111.202-248.376 248.376s111.202 248.376 248.376 248.376 248.376-111.202 248.376-248.376-111.201-248.376-248.376-248.376z"/><path d="m267.482 366.164c-5.276 0-9.553-4.277-9.553-9.553v-229.27c0-5.276 4.277-9.553 9.553-9.553s9.553 4.277 9.553 9.553v229.271c0 5.275-4.277 9.552-9.553 9.552z"/><path d="m267.482 417.177c-5.276 0-9.553-4.277-9.553-9.553v-9.553c0-5.276 4.277-9.553 9.553-9.553s9.553 4.277 9.553 9.553v9.553c0 5.276-4.277 9.553-9.553 9.553z"/></g></g></svg>