<svg id="Capa_1" enable-background="new 0 0 512 512" height="512" viewBox="0 0 512 512" width="512" xmlns="http://www.w3.org/2000/svg"><g><path d="m157.207 326c-20.678 0-37.5 16.822-37.5 37.5s16.822 37.5 37.5 37.5 37.5-16.822 37.5-37.5-16.823-37.5-37.5-37.5zm0 60c-12.407 0-22.5-10.094-22.5-22.5s10.093-22.5 22.5-22.5 22.5 10.094 22.5 22.5-10.094 22.5-22.5 22.5z"/><path d="m414.5 326c-20.678 0-37.5 16.822-37.5 37.5s16.822 37.5 37.5 37.5 37.5-16.822 37.5-37.5-16.822-37.5-37.5-37.5zm0 60c-12.407 0-22.5-10.094-22.5-22.5s10.093-22.5 22.5-22.5 22.5 10.094 22.5 22.5-10.093 22.5-22.5 22.5z"/><path d="m486.299 244.565-66.325-21.986-34.16-106.276c-.008-.027-.018-.054-.026-.082l-2.956-9.197c-5.003-15.566-19.35-26.024-35.701-26.024h-264.631c-20.678 0-37.5 16.822-37.5 37.5v84.036c-4.416-2.561-9.538-4.036-15-4.036-16.542 0-30 13.458-30 30v75c0 16.542 13.458 30 30 30 5.462 0 10.584-1.475 15-4.036v34.036c0 4.143 3.358 7.5 7.5 7.5h37.633c3.744 33.702 32.39 60 67.073 60s63.329-26.298 67.073-60h123.147c3.744 33.702 32.39 60 67.073 60s63.329-26.298 67.073-60h22.928c4.142 0 7.5-3.357 7.5-7.5v-83.339c0-16.195-10.329-30.5-25.701-35.596zm-403.799-148.565h264.631c9.59 0 18.018 6.006 21.196 15h-255.827c-4.142 0-7.5 3.357-7.5 7.5s3.358 7.5 7.5 7.5h260.676l33.684 104.795c.732 2.278 2.508 4.071 4.78 4.824l69.94 23.185c9.223 3.057 15.42 11.64 15.42 21.357v15.839h-82.5c-23.353 0-43.97 11.924-56.094 30h-145.106c-12.124-18.076-32.74-30-56.094-30h-97.206v-170h22.5c4.142 0 7.5-3.357 7.5-7.5s-3.358-7.5-7.5-7.5h-21.21c3.096-8.729 11.433-15 21.21-15zm138.336 245h130.034c-1.695 4.778-2.866 9.8-3.444 15h-123.146c-.578-5.2-1.749-10.222-3.444-15zm-190.836-22.5c-8.271 0-15-6.729-15-15v-75c0-8.271 6.729-15 15-15s15 6.729 15 15v75c0 8.271-6.729 15-15 15zm30-7.5h54.846c-13.485 10.902-22.699 26.877-24.712 45h-30.134zm97.207 105c-28.949 0-52.5-23.552-52.5-52.5s23.551-52.5 52.5-52.5 52.5 23.552 52.5 52.5-23.552 52.5-52.5 52.5zm257.293 0c-28.949 0-52.5-23.552-52.5-52.5s23.551-52.5 52.5-52.5 52.5 23.552 52.5 52.5-23.551 52.5-52.5 52.5zm67.073-60c-2.013-18.123-11.227-34.098-24.712-45h40.139v45z"/><path d="m75 148.5v80c0 4.143 3.358 7.5 7.5 7.5h164.707c4.142 0 7.5-3.357 7.5-7.5v-80c0-4.143-3.358-7.5-7.5-7.5h-164.707c-4.142 0-7.5 3.357-7.5 7.5zm15 7.5h149.707v65h-149.707z"/><path d="m277.207 236h105.282c2.396 0 4.649-1.146 6.061-3.082s1.813-4.432 1.08-6.713l-25.714-80c-.997-3.102-3.882-5.205-7.14-5.205h-79.567c-4.142 0-7.5 3.357-7.5 7.5v80c-.002 4.143 3.355 7.5 7.498 7.5zm7.5-80h66.6l20.893 65h-87.493z"/></g></svg>