<?xml version="1.0"?>
<svg xmlns="http://www.w3.org/2000/svg" xmlns:xlink="http://www.w3.org/1999/xlink" version="1.1" id="Capa_1" x="0px" y="0px" viewBox="0 0 512 512" style="enable-background:new 0 0 512 512;" xml:space="preserve" width="512px" height="512px"><g><g>
	<g>
		<path d="M437.019,74.982c-48.352-48.352-112.64-74.98-181.02-74.98c-46.005,0-90.676,12.213-129.964,35.408L95.02,4.395    c-4.29-4.291-10.742-5.574-16.347-3.252s-9.26,7.791-9.26,13.858v71.772c0,8.284,6.716,15,15,15h71.773    c6.067,0,11.537-3.654,13.858-9.26c2.321-5.605,1.038-12.057-3.252-16.347l-18.753-18.753    C181.037,39.436,217.999,30.001,256,30.001c124.616,0,226,101.383,226,226s-101.384,226-226,226c-124.617,0-226-101.383-226-226    c0-8.284-6.716-15-15-15c-8.284,0-15,6.716-15,15c0,68.38,26.628,132.667,74.98,181.018C123.333,485.372,187.62,512,255.999,512    s132.667-26.629,181.02-74.981S512,324.38,512,256.001S485.371,123.334,437.019,74.982z" data-original="#000000" class="active-path" data-old_color="#000000" fill="#FFFFFF"/>
	</g>
</g><g>
	<g>
		<path d="M352.4,241.001H271v-81.4c0-8.285-6.716-15-15-15s-15,6.716-15,15v96.4c0,8.284,6.716,15,15,15h96.4    c8.284,0,15-6.716,15-15S360.684,241.001,352.4,241.001z" data-original="#000000" class="active-path" data-old_color="#000000" fill="#FFFFFF"/>
	</g>
</g></g> </svg>
